grf
version=1
nRows=14
nColumns=37
inDegrees=no
endheader
time	ground_force_1_vx	ground_force_1_vy	ground_force_1_vz	ground_force_1_px	ground_force_1_py	ground_force_1_pz	ground_moment_1_mx	ground_moment_1_my	ground_moment_1_mz	ground_force_2_vx	ground_force_2_vy	ground_force_2_vz	ground_force_2_px	ground_force_2_py	ground_force_2_pz	ground_moment_2_mx	ground_moment_2_my	ground_moment_2_mz	ground_force_3_vx	ground_force_3_vy	ground_force_3_vz	ground_force_3_px	ground_force_3_py	ground_force_3_pz	ground_moment_3_mx	ground_moment_3_my	ground_moment_3_mz	ground_force_4_vx	ground_force_4_vy	ground_force_4_vz	ground_force_4_px	ground_force_4_py	ground_force_4_pz	ground_moment_4_mx	ground_moment_4_my	ground_moment_4_mz
      0.00000000	      0.00000000	     -0.00000000	      0.00000000	      0.00000000	      0.00000000	      0.00000000	      0.00000000	      0.00000000	      0.00000000	     32.21879578	     11.92968655	   -723.84033203	   -311.10406732	  -1055.86088672	      0.00000000	      0.00000000	      0.00000000	   -937.91334429	     -7.45170573	      2.28289145	    -44.24757004	   -149.93523106	   -852.23952771	      0.00000000	      0.00000000	     -0.00000000	   -685.87846346	    -35.09139491	     16.22276994	     75.65772247	    604.17567796	   -564.60802895	      0.00000000	      0.00000000	     -0.00000000	    -70.94673284
      0.01000000	      0.00000000	     -0.00000000	      0.00000000	      0.00000000	      0.00000000	      0.00000000	      0.00000000	      0.00000000	      0.00000000	     31.70736122	     12.38912582	   -747.77569580	   -309.54010923	  -1054.93847966	      0.00000000	     -0.00000000	     -0.00000000	   -845.35767649	     -9.66947523	      3.77410592	    -30.44394493	   -163.04756177	   -843.61222043	      0.00000000	      0.00000000	     -0.00000000	   -446.46755768	    -34.95480967	     16.29382248	     75.91697693	    604.98157851	   -561.12074731	      0.00000000	      0.00000000	     -0.00000000	   -329.46629561
      0.02000000	      0.00000000	     -0.00000000	      0.00000000	      0.00000000	      0.00000000	      0.00000000	      0.00000000	      0.00000000	      0.00000000	     31.12503052	     13.48217487	   -767.49737549	   -307.20770991	  -1055.21045026	      0.00000000	     -0.00000000	     -0.00000000	   -752.41055391	      0.00000000	     -0.00000000	      0.00000000	      0.00000000	      0.00000000	      0.00000000	      0.00000000	      0.00000000	      0.00000000	    -34.83692028	     16.14235992	     74.95634460	    608.05659885	   -567.00921499	      0.00000000	      0.00000000	     -0.00000000	    -67.35310455
      0.03000000	      0.00000000	     -0.00000000	      0.00000000	      0.00000000	      0.00000000	      0.00000000	      0.00000000	      0.00000000	      0.00000000	     29.97473145	     13.81521225	   -780.23077393	   -306.16660376	  -1054.84178922	      0.00000000	      0.00000000	     -0.00000000	   -980.72000806	      0.00000000	     -0.00000000	      0.00000000	      0.00000000	      0.00000000	      0.00000000	      0.00000000	      0.00000000	      0.00000000	    -34.80793621	     16.12774581	     75.82866669	    603.94762790	   -562.88414916	      0.00000000	     -0.00000000	     -0.00000000	   -138.92266138
      0.04000000	      0.00000000	     -0.00000000	      0.00000000	      0.00000000	      0.00000000	      0.00000000	      0.00000000	      0.00000000	      0.00000000	     29.94606590	     12.33740044	   -789.39190674	   -305.15711812	  -1053.37120039	      0.00000000	      0.00000000	     -0.00000000	   -817.06487411	      0.00000000	     -0.00000000	      0.00000000	      0.00000000	      0.00000000	      0.00000000	      0.00000000	      0.00000000	      0.00000000	    -34.68074276	     16.15687864	     76.71162415	    601.57939573	   -562.69542211	      0.00000000	      0.00000000	     -0.00000000	    -19.60609909
      0.05000000	      0.00000000	     -0.00000000	      0.00000000	      0.00000000	      0.00000000	      0.00000000	      0.00000000	      0.00000000	      0.00000000	     30.96453667	     11.28221226	   -800.71612549	   -304.83218963	  -1052.65532700	      0.00000000	      0.00000000	     -0.00000000	   -551.00850381	      0.00000000	     -0.00000000	      0.00000000	      0.00000000	      0.00000000	      0.00000000	      0.00000000	      0.00000000	      0.00000000	    -34.99294141	     16.05219956	     75.54377747	    604.14868282	   -562.27987540	      0.00000000	      0.00000000	     -0.00000000	   -171.81290960
      0.06000000	      0.00000000	     -0.00000000	      0.00000000	      0.00000000	      0.00000000	      0.00000000	      0.00000000	      0.00000000	      0.00000000	     32.81324005	     11.69066620	   -811.13226318	   -304.66854668	  -1053.12857266	      0.00000000	      0.00000000	     -0.00000000	   -587.56739013	      0.00000000	     -0.00000000	      0.00000000	      0.00000000	      0.00000000	      0.00000000	      0.00000000	      0.00000000	      0.00000000	    -34.56827784	     16.36679189	     74.84098053	    609.12765805	   -565.48119174	      0.00000000	      0.00000000	     -0.00000000	   -285.73188359
      0.07000000	      0.00000000	     -0.00000000	      0.00000000	      0.00000000	      0.00000000	      0.00000000	      0.00000000	      0.00000000	      0.00000000	     33.89999390	     10.35478115	   -814.70068359	   -303.97022967	  -1051.91418016	      0.00000000	      0.00000000	     -0.00000000	   -454.04768922	      0.00000000	     -0.00000000	      0.00000000	      0.00000000	      0.00000000	      0.00000000	      0.00000000	      0.00000000	      0.00000000	    -34.62778714	     16.10456769	     75.04512024	    605.27236563	   -568.76477492	      0.00000000	      0.00000000	      0.00000000	     20.28560206
      0.08000000	      0.00000000	     -0.00000000	      0.00000000	      0.00000000	      0.00000000	      0.00000000	      0.00000000	      0.00000000	      0.00000000	     33.81078339	      9.60370922	   -816.49340820	   -303.01710015	  -1051.66761174	      0.00000000	      0.00000000	     -0.00000000	   -502.41288884	      0.00000000	     -0.00000000	      0.00000000	      0.00000000	      0.00000000	      0.00000000	      0.00000000	      0.00000000	      0.00000000	    -34.56817483	     16.43418233	     76.74046326	    602.02918767	   -560.38694827	      0.00000000	      0.00000000	     -0.00000000	   -328.71897560
      0.09000000	      0.00000000	     -0.00000000	      0.00000000	      0.00000000	      0.00000000	      0.00000000	      0.00000000	      0.00000000	      0.00000000	     31.61764717	     10.24999619	   -815.84570312	   -301.12736908	  -1052.06554500	      0.00000000	     -0.00000000	     -0.00000000	   -503.00929124	      0.00000000	     -0.00000000	      0.00000000	      0.00000000	      0.00000000	      0.00000000	      0.00000000	      0.00000000	      0.00000000	    -35.09811261	     16.09779283	     76.42152405	    601.00589878	   -561.40458318	      0.00000000	      0.00000000	     -0.00000000	   -171.44504919
      0.10000000	      0.00000000	     -0.00000000	      0.00000000	      0.00000000	      0.00000000	      0.00000000	      0.00000000	      0.00000000	      0.00000000	     28.53349876	     12.67849922	   -807.39672852	   -299.15392866	  -1051.60337027	      0.00000000	      0.00000000	     -0.00000000	   -651.62597230	      0.00000000	     -0.00000000	      0.00000000	      0.00000000	      0.00000000	      0.00000000	      0.00000000	      0.00000000	      0.00000000	    -34.88880017	     16.07377548	     76.30206299	    602.08866125	   -565.72322662	      0.00000000	      0.00000000	      0.00000000	     61.65026523
      0.11000000	      0.00000000	     -0.00000000	      0.00000000	      0.00000000	      0.00000000	      0.00000000	      0.00000000	      0.00000000	      0.00000000	     24.27392197	     14.61738586	   -799.09979248	   -296.68464950	  -1051.73056848	      0.00000000	     -0.00000000	     -0.00000000	  -1007.30896889	      0.00000000	     -0.00000000	      0.00000000	      0.00000000	      0.00000000	      0.00000000	      0.00000000	      0.00000000	      0.00000000	    -34.96887830	     15.99293538	     75.06695557	    604.32415100	   -567.69667231	      0.00000000	      0.00000000	      0.00000000	    179.77942206
      0.12000000	      0.00000000	     -0.00000000	      0.00000000	      0.00000000	      0.00000000	      0.00000000	      0.00000000	      0.00000000	      0.00000000	     21.61055374	     15.04772186	   -791.45141602	   -293.90802351	  -1052.14643383	      0.00000000	      0.00000000	     -0.00000000	   -790.71974498	      0.00000000	     -0.00000000	      0.00000000	      0.00000000	      0.00000000	      0.00000000	      0.00000000	      0.00000000	      0.00000000	    -35.18831876	     16.00876162	     76.77466583	    600.61821265	   -560.83469806	      0.00000000	      0.00000000	     -0.00000000	    -68.09647244
      0.13000000	      0.00000000	     -0.00000000	      0.00000000	      0.00000000	      0.00000000	      0.00000000	      0.00000000	      0.00000000	      0.00000000	     19.96171379	     15.09389496	   -782.67053223	   -291.76016609	  -1052.00142351	      0.00000000	      0.00000000	     -0.00000000	   -886.29835159	      0.00000000	     -0.00000000	      0.00000000	      0.00000000	      0.00000000	      0.00000000	      0.00000000	      0.00000000	      0.00000000	    -34.79934550	     16.28450698	     75.24847412	    608.45620572	   -563.19365019	      0.00000000	      0.00000000	     -0.00000000	   -238.94707769
